# xmcd
#
# Track frame offsets:
#	183
#	21025
#	39045
#	56210
#	75923
#	99740
#	118768
#	136010
#	152293
#	172373
#
# Disc length: 2532 seconds
#
# Revision: 0
# Processed by: cddbd v1.5.2PL0 Copyright (c) Steve Scherf et al.
# Submitted via: audiograbber 1.83.01
#
DISCID=7209e20a
DTITLE=The Elgins - Take The Train
DYEAR=1990
DGENRE=Soul
TTITLE0=TakeThe Train
TTITLE1=Oooh Honey Baby
TTITLE2=Look What You've Done To My Heart
TTITLE3=Souvenirs Of Love
TTITLE4=Brand New Feeling
TTITLE5=Closer To Your Heart
TTITLE6=Don't Wait Around
TTITLE7=Heading Away From Heartaches
TTITLE8=Stop Dead In MyTracks
TTITLE9=Heaven Must Have Sent You
EXTD=
EXTT0=
EXTT1=
EXTT2=
EXTT3=
EXTT4=
EXTT5=
EXTT6=
EXTT7=
EXTT8=
EXTT9=
PLAYORDER=
